<?xml version="1.0" encoding="UTF-8" standalone="no"?>
<!-- Created with Inkscape (http://www.inkscape.org/) -->

<svg
   width="256"
   height="256"
   viewBox="0 0 256 256"
   version="1.1"
   id="svg1"
   inkscape:version="1.3.2 (091e20e, 2023-11-25, custom)"
   sodipodi:docname="osmheart_lgbtq.svg"
   xmlns:inkscape="http://www.inkscape.org/namespaces/inkscape"
   xmlns:sodipodi="http://sodipodi.sourceforge.net/DTD/sodipodi-0.dtd"
   xmlns="http://www.w3.org/2000/svg"
   xmlns:svg="http://www.w3.org/2000/svg"
   xmlns:rdf="http://www.w3.org/1999/02/22-rdf-syntax-ns#"
   xmlns:cc="http://creativecommons.org/ns#">
  <sodipodi:namedview
     id="namedview1"
     pagecolor="#505050"
     bordercolor="#eeeeee"
     borderopacity="1"
     inkscape:showpageshadow="0"
     inkscape:pageopacity="0"
     inkscape:pagecheckerboard="true"
     inkscape:deskcolor="#505050"
     inkscape:document-units="px"
     showgrid="true"
     inkscape:zoom="3.2013155"
     inkscape:cx="149.78218"
     inkscape:cy="95.42952"
     inkscape:current-layer="layer1">
    <inkscape:grid
       id="grid1"
       units="px"
       originx="0"
       originy="0"
       spacingx="1"
       spacingy="1"
       empcolor="#0099e5"
       empopacity="0.30196078"
       color="#0099e5"
       opacity="0.14901961"
       empspacing="16"
       dotted="false"
       gridanglex="30"
       gridanglez="30"
       visible="true"
       snapvisiblegridlinesonly="false" />
  </sodipodi:namedview>
  <defs
     id="defs1">
    <clipPath
       clipPathUnits="userSpaceOnUse"
       id="clipPath5466">
      <path
         style="fill:#ceeeab;fill-opacity:1;stroke:none"
         d="m 9,12.25 c 0,0 7.5,13 11.75,27.75 C 25,54.75 27,65.5 27,65.5 c 0,0 -5.5,12.75 -8.25,24.75 -2.75,12 -5.75,23 -5.75,23 0,0 5.75,16 9.25,30 3.5,14 3.75,24.25 3.75,24.25 0,0 -4,10.25 -7.5,24.25 -3.5,14 -5,30.75 -5,30.75 0,0 9.25,-2 28.5,1.25 19.25,3.25 32.25,6 32.25,6 0,0 12.75,-2.75 24,-6.25 11.25,-3.5 16.25,-6.5 16.25,-6.5 0,0 5.5,0.5 22.5,6.25 17,5.75 29.25,8.5 29.25,8.5 0,0 13,-2.75 26,-5.75 13,-3 26.5,-8 26.5,-8 0,0 -0.75,-5 4.25,-24.5 5,-19.5 8.75,-28 8.75,-28 0,0 -0.5,-4.5 -3.75,-19.75 C 224.75,130.5 218,116 218,116 c 0,0 1.75,-10.5 6.75,-23.75 C 229.75,79 235,65.5 235,65.5 c 0,0 -4.75,-15.25 -7.5,-29.75 C 224.75,21.25 219.25,10 219.25,10 c 0,0 -24.25,9 -31.75,10.5 -7.5,1.5 -21,5.25 -21,5.25 0,0 -9.75,-4.25 -22,-8.5 -12.25,-4.25 -29.75,-5.5 -29.75,-5.5 0,0 -3.25,3.5 -22,8 -18.75,4.5 -27.5,5.75 -27.5,5.75 0,0 -18.5,-9 -31.5,-11.5 -13,-2.5 -24,-2 -24.75,-1.75 z"
         id="path5468" />
    </clipPath>
    <clipPath
       clipPathUnits="userSpaceOnUse"
       id="clipPath5383">
      <path
         style="fill:#ceeeab;fill-opacity:1;stroke:none"
         d="m 9,12.25 c 0,0 7.5,13 11.75,27.75 C 25,54.75 27,65.5 27,65.5 c 0,0 -5.5,12.75 -8.25,24.75 -2.75,12 -5.75,23 -5.75,23 0,0 5.75,16 9.25,30 3.5,14 3.75,24.25 3.75,24.25 0,0 -4,10.25 -7.5,24.25 -3.5,14 -5,30.75 -5,30.75 0,0 9.25,-2 28.5,1.25 19.25,3.25 32.25,6 32.25,6 0,0 12.75,-2.75 24,-6.25 11.25,-3.5 16.25,-6.5 16.25,-6.5 0,0 5.5,0.5 22.5,6.25 17,5.75 29.25,8.5 29.25,8.5 0,0 13,-2.75 26,-5.75 13,-3 26.5,-8 26.5,-8 0,0 -0.75,-5 4.25,-24.5 5,-19.5 8.75,-28 8.75,-28 0,0 -0.5,-4.5 -3.75,-19.75 C 224.75,130.5 218,116 218,116 c 0,0 1.75,-10.5 6.75,-23.75 C 229.75,79 235,65.5 235,65.5 c 0,0 -4.75,-15.25 -7.5,-29.75 C 224.75,21.25 219.25,10 219.25,10 c 0,0 -24.25,9 -31.75,10.5 -7.5,1.5 -21,5.25 -21,5.25 0,0 -9.75,-4.25 -22,-8.5 -12.25,-4.25 -29.75,-5.5 -29.75,-5.5 0,0 -3.25,3.5 -22,8 -18.75,4.5 -27.5,5.75 -27.5,5.75 0,0 -18.5,-9 -31.5,-11.5 -13,-2.5 -24,-2 -24.75,-1.75 z"
         id="path5385" />
    </clipPath>
    <clipPath
       clipPathUnits="userSpaceOnUse"
       id="clipPath5426">
      <path
         style="fill:#ceeeab;fill-opacity:1;stroke:none"
         d="m 9,12.25 c 0,0 7.5,13 11.75,27.75 C 25,54.75 27,65.5 27,65.5 c 0,0 -5.5,12.75 -8.25,24.75 -2.75,12 -5.75,23 -5.75,23 0,0 5.75,16 9.25,30 3.5,14 3.75,24.25 3.75,24.25 0,0 -4,10.25 -7.5,24.25 -3.5,14 -5,30.75 -5,30.75 0,0 9.25,-2 28.5,1.25 19.25,3.25 32.25,6 32.25,6 0,0 12.75,-2.75 24,-6.25 11.25,-3.5 16.25,-6.5 16.25,-6.5 0,0 5.5,0.5 22.5,6.25 17,5.75 29.25,8.5 29.25,8.5 0,0 13,-2.75 26,-5.75 13,-3 26.5,-8 26.5,-8 0,0 -0.75,-5 4.25,-24.5 5,-19.5 8.75,-28 8.75,-28 0,0 -0.5,-4.5 -3.75,-19.75 C 224.75,130.5 218,116 218,116 c 0,0 1.75,-10.5 6.75,-23.75 C 229.75,79 235,65.5 235,65.5 c 0,0 -4.75,-15.25 -7.5,-29.75 C 224.75,21.25 219.25,10 219.25,10 c 0,0 -24.25,9 -31.75,10.5 -7.5,1.5 -21,5.25 -21,5.25 0,0 -9.75,-4.25 -22,-8.5 -12.25,-4.25 -29.75,-5.5 -29.75,-5.5 0,0 -3.25,3.5 -22,8 -18.75,4.5 -27.5,5.75 -27.5,5.75 0,0 -18.5,-9 -31.5,-11.5 -13,-2.5 -24,-2 -24.75,-1.75 z"
         id="path5428" />
    </clipPath>
    <clipPath
       clipPathUnits="userSpaceOnUse"
       id="clipPath8">
      <path
         d="m 173.12521,37 q 8.84514,0 17.09061,3.350611 8.39537,3.198329 14.69192,9.899584 6.44646,6.548958 10.19442,16.600844 3.89785,10.051885 3.89785,23.759 0,15.230121 -4.79737,28.480331 -4.79737,13.09792 -12.59308,24.67282 -7.7957,11.5749 -17.69026,21.77908 -9.74467,10.05186 -19.78914,19.34226 -10.04451,9.13807 -19.4893,17.66694 -9.29489,8.37657 -16.0412,16.44854 h -1.34924 q -6.74628,-8.07197 -16.0412,-16.44854 -9.29487,-8.52887 -19.339351,-17.66694 -10.044493,-9.2904 -19.939054,-19.34226 -9.744638,-10.20418 -17.540363,-21.77908 -7.795708,-11.5749 -12.593071,-24.67282 -4.79738,-13.25021 -4.79738,-28.480331 0,-13.707115 3.747939,-23.759 Q 44.645804,56.799153 50.94233,50.250195 57.388814,43.54894 65.634289,40.350611 74.029669,37 82.874799,37 q 8.545312,0 15.29161,2.284495 6.896191,2.284531 12.293241,6.244376 5.54696,3.807527 9.59472,8.833452 4.19771,4.873642 7.19605,10.051902 h 1.34924 q 2.99838,-5.17826 7.19605,-10.051902 4.19769,-5.025925 9.59475,-8.833452 5.54694,-3.959845 12.29324,-6.244376 Q 164.5799,37 173.12521,37 Z"
         id="path8"
         style="font-size:173.333px;font-family:'Nirmala UI';-inkscape-font-specification:'Nirmala UI';fill-rule:evenodd;stroke-width:1.64789;stroke-linejoin:round"
         aria-label="♥" />
    </clipPath>
    <filter
       inkscape:collect="always"
       style="color-interpolation-filters:sRGB"
       id="filter8"
       x="-0.108"
       y="-0.108"
       width="1.216"
       height="1.216">
      <feGaussianBlur
         inkscape:collect="always"
         stdDeviation="9.36"
         id="feGaussianBlur8" />
    </filter>
    <filter
       inkscape:collect="always"
       style="color-interpolation-filters:sRGB"
       id="filter1"
       x="-0.087131939"
       y="-0.087131939"
       width="1.1742639"
       height="1.1742639">
      <feGaussianBlur
         inkscape:collect="always"
         stdDeviation="6.4396121"
         id="feGaussianBlur1" />
    </filter>
    <mask
       maskUnits="userSpaceOnUse"
       id="mask1">
      <path
         d="m 112.11216,36.920879 q 4.74613,2.74018 8.13249,7.092461 3.51397,4.317005 4.81655,9.863409 1.43022,5.511126 0.32728,12.065873 -1.02252,6.601182 -5.26891,13.956154 -4.71822,8.172194 -11.39725,13.795797 -6.63184,5.541892 -14.40072,9.337687 -7.76887,3.7958 -16.239305,6.20588 -8.342817,2.37479 -16.610604,4.24811 -8.220617,1.79157 -15.930714,3.44205 -7.58248,1.6152 -13.703075,3.85648 l -0.723977,-0.41799 Q 29.994658,113.94557 27.602202,106.57134 25.256953,99.115407 22.698208,91.10037 20.186647,83.003586 17.991432,74.544665 15.923851,66.050458 15.326663,57.424511 14.729484,48.798569 16.212982,40.284279 17.743648,31.68827 22.461867,23.516076 26.708263,16.161104 31.83336,11.928549 37.038902,7.7424386 42.446331,6.1790281 q 5.535076,-1.598677 10.950265,-0.76043 5.542802,0.8029737 10.288928,3.5431512 4.58525,2.6472947 7.497456,5.9630787 2.992634,3.362244 4.661842,7.158999 1.796838,3.761466 2.411783,7.712262 0.742581,3.915528 0.747232,7.622952 l 0.723976,0.417988 q 3.213072,-1.849671 6.975291,-3.164352 3.809408,-1.396394 7.88492,-1.767457 4.203123,-0.406363 8.530786,0.457771 4.4081,0.910593 8.99335,3.557888 z"
         id="path1"
         style="font-size:173.333px;font-family:'Nirmala UI';-inkscape-font-specification:'Nirmala UI';fill:#ffffff;fill-opacity:1;fill-rule:evenodd;stroke-width:1.02101;stroke-linejoin:round"
         aria-label="♥" />
    </mask>
  </defs>
  <g
     inkscape:label="Layer 1"
     inkscape:groupmode="layer"
     id="layer1">
    <path
       d="m 179.57166,24 q 10.10873,0 19.53213,3.82927 9.59471,3.65523 16.79076,11.31381 7.36738,7.48452 11.65077,18.97239 Q 232,69.60334 232,85.26861 q 0,17.40586 -5.48271,32.54895 -5.4827,14.96905 -14.39209,28.19751 -8.90937,13.22846 -20.21744,24.89037 -11.13676,11.48785 -22.61616,22.10544 -11.47943,10.44351 -22.27348,20.19079 Q 136.39539,222.7749 128.68532,232 h -1.54199 Q 119.4333,222.7749 108.81053,213.20167 98.18783,203.45439 86.70842,193.01088 75.229,182.39329 63.92093,170.90544 52.7842,159.24353 43.8748,146.01507 34.96542,132.78661 29.48272,117.81756 24,102.67447 24,85.26861 24,69.60334 28.28336,58.11547 32.73806,46.6276 39.93409,39.14308 47.3015,31.4845 56.7249,27.82927 66.31962,24 76.42834,24 q 9.76607,0 17.47612,2.61085 7.88137,2.61089 14.04942,7.13643 6.33938,4.35146 10.96539,10.09537 4.79739,5.56988 8.22406,11.48789 h 1.54199 q 3.42672,-5.91801 8.22406,-11.48789 4.79736,-5.74391 10.96542,-10.09537 6.33937,-4.52554 14.04942,-7.13643 Q 169.80559,24 179.57166,24 Z"
       id="text8-4-6"
       style="font-size:173.333px;font-family:'Nirmala UI';-inkscape-font-specification:'Nirmala UI';display:inline;mix-blend-mode:normal;fill:#000000;fill-opacity:1;fill-rule:evenodd;stroke-width:1.8833;stroke-linejoin:round;filter:url(#filter8)"
       aria-label="♥"
       inkscape:label="Base Heart Shadow"
       transform="matrix(1.0121458,0,0,1.0121458,-1.5546552,-1.5546552)"
       sodipodi:insensitive="true" />
    <g
       id="Map"
       mask="none"
       clip-path="url(#clipPath8)"
       transform="matrix(1.1428571,0,0,1.1428571,-18.285713,-18.285712)"
       inkscape:label="Base Heart Map"
       style="display:inline;stroke-width:1.00013;stroke-dasharray:none"
       sodipodi:insensitive="true">
      <g
         id="layer4"
         inkscape:label="map_details"
         style="display:inline;stroke-width:0.999522;stroke-dasharray:none"
         transform="matrix(0.99115044,0,0,1.0101466,7.079646,16)"
         mask="none">
        <path
           style="fill:#ceeeab;fill-opacity:1;stroke:none;stroke-width:0.999522;stroke-dasharray:none"
           d="m 9,2.25 c 0,0 7.5,13 11.75,27.75 C 25,44.75 27,55.5 27,55.5 c 0,0 -5.5,12.75 -8.25,24.75 -2.75,12 -5.75,23 -5.75,23 0,0 5.75,16 9.25,30 3.5,14 3.75,24.25 3.75,24.25 0,0 -4,10.25 -7.5,24.25 -3.5,14 -5,30.75 -5,30.75 0,0 9.25,-2 28.5,1.25 19.25,3.25 32.25,6 32.25,6 0,0 12.75,-2.75 24,-6.25 11.25,-3.5 16.25,-6.5 16.25,-6.5 0,0 5.5,0.5 22.5,6.25 17,5.75 29.25,8.5 29.25,8.5 0,0 13,-2.75 26,-5.75 13,-3 26.5,-8 26.5,-8 0,0 -0.75,-5 4.25,-24.5 5,-19.5 8.75,-28 8.75,-28 0,0 -0.5,-4.5 -3.75,-19.75 C 224.75,120.5 218,106 218,106 c 0,0 1.75,-10.5 6.75,-23.75 C 229.75,69 235,55.5 235,55.5 c 0,0 -4.75,-15.25 -7.5,-29.75 C 224.75,11.25 219.25,0 219.25,0 c 0,0 -24.25,9 -31.75,10.5 -7.5,1.5 -21,5.25 -21,5.25 0,0 -9.75,-4.25 -22,-8.5 -12.25,-4.25 -29.75,-5.5 -29.75,-5.5 0,0 -3.25,3.5 -22,8 -18.75,4.5 -27.5,5.75 -27.5,5.75 0,0 -18.5,-9 -31.5,-11.5 C 20.75,1.5 9.75,2 9,2.25 Z"
           id="path3834-9" />
        <g
           id="g5438"
           clip-path="url(#clipPath5466)"
           transform="translate(0,-10)"
           style="stroke-width:0.999522;stroke-dasharray:none">
          <path
             style="fill:#a6dd8b;fill-opacity:1;stroke:none;stroke-width:0.999522;stroke-dasharray:none"
             d="m 110.75,5.5 -4.25,7 c -0.75,9 -2.25,13.75 -8.5,16.5 -6.25,2.75 -12.25,3.5 -11,7.5 1.25,4 13,9.25 14.25,13 1.25,3.75 8.25,1.75 11,7 2.75,5.25 2,15.25 -3.75,17.25 -5.75,2 -17.5,0.5 -20.25,9.5 -2.75,9 -4.75,10.5 -9,12.75 -4.25,2.25 -7.25,10.5 -3.5,16.5 3.75,6 12.25,-1.25 15,-6.5 C 93.5,100.75 98,97.25 98,97.25 h 23.75 l 59,-1.75 3.25,-3.75 c 0,0 3.25,4 2.75,8.75 -0.5,4.75 -3.75,14.75 0.25,17.25 4,2.5 19.5,-2 24,-7 4.5,-5 -4.75,-28.25 -10.5,-29.5 -5.75,-1.25 -18.5,-1.75 -17,-7 1.5,-5.25 11.75,4.5 17.25,3.25 5.5,-1.25 16.75,-21 12,-25.25 C 208,48 188.5,47 187,44.25 c -1.5,-2.75 21,-8 22.25,-11 1.25,-3 -2.5,-7.25 -6.25,-8.5 C 199.25,23.5 189,41 182,40.5 175,40 162,46.25 164.75,52 c 2.75,5.75 -6,11 -14.5,6.5 -8.5,-4.5 -24.75,-13 -21.75,-24 3,-11 21.5,-18.75 21.5,-18.75 z M 97.1875,112.71875 c -1.594849,0.14648 -4.46875,4.6875 -4.9375,7.03125 -0.5,2.5 -3.25,6.75 -3.5,12.25 -0.25,5.5 4.75,6.75 8.75,6.5 4,-0.25 2.75,-6.75 2,-15 -0.25,0 -0.5,-10.25 -2,-10.75 -0.09375,-0.0312 -0.206177,-0.041 -0.3125,-0.0312 z m 92.71875,51.65625 c -6.33545,0.29541 -6.625,7.46875 -7.40625,8.875 -1.25,2.25 2.25,13.75 2,18 -0.25,4.25 -4.75,5.25 -9.5,9.75 -4.75,4.5 0.5,16 11.25,31 l 44.75,1.25 -1,-35 c 0,0 4.75,-4.25 -20.75,-24.25 -9.5625,-7.5 -15.54248,-9.80225 -19.34375,-9.625 z M 39.9375,180.90625 C 35.908264,180.80371 31.65625,186.625 30.25,188.5 c -1.5,2 -6.25,5 -17,9.5 l -14.5,34.25 53,4.25 c 0,0 1.75,-11 -4.25,-15.75 C 41.5,216 30.25,215 29.25,207.5 28.25,200 38.5,197.5 43,193.25 47.5,189 45,182 40.75,181 c -0.265625,-0.0625 -0.543884,-0.0869 -0.8125,-0.0937 z"
             id="path5436" />
        </g>
        <path
           style="fill:#aac3e7;fill-opacity:1;stroke:none;stroke-width:0.999522;stroke-dasharray:none"
           d="M 158.53125,75.34375 C 153.77142,75.329407 149.5,76.3125 147,78.5 c -8,7 -35,0.75 -48.5,7 -13.5,6.25 -13.25,38 -14.75,44.5 -1.5,6.5 -17.5,20.75 -20,23.5 -2.5,2.75 -13.25,7.25 -19.5,8.5 -6.25,1.25 -12.75,7.25 -15.5,11 -2.021124,2.75608 -7.406019,6.45031 -10.125,8.21875 -0.0458,0.18128 -0.07936,0.34868 -0.125,0.53125 -0.133689,0.53475 -0.24712,1.08331 -0.375,1.625 4.979513,-1.60482 11.179508,-8.17951 16.625,-13.625 6.25,-6.25 20,-7.75 27.75,-11.5 7.75,-3.75 14.25,-19.75 26.5,-23.75 12.25,-4 21.25,11.75 24.25,18.5 3,6.75 1.75,12.75 3.75,17 2,4.25 11,11.75 11.5,13.5 0.5,1.75 -5,6.5 -6.25,8.5 -1.25,2 -10.5,7 -11.75,8.75 -0.96568,1.35195 -1.92316,6.77314 -2.3125,9.21875 0.41303,-0.1692 0.75418,-0.31053 1.125,-0.46875 0.484,-2.52933 1.51549,-7.07799 2.9375,-8.5 2,-2 11.25,-4.5 12.5,-8.5 1.25,-4 7,-6.5 7,-6.5 0,0 2.75,4 16,14 8.83333,6.66667 12.7581,15.53356 14.40625,20.71875 0.6736,0.17065 1.53295,0.4094 2.03125,0.53125 -1.22115,-4.31871 -4.83646,-16.23885 -8.9375,-20.75 -5,-5.5 -18.5,-10.75 -22.75,-22 -4.25,-11.25 -24.5,-34.25 -17.5,-40.25 7,-6 16.5,-4 28.5,7.5 12,11.5 46.25,5.75 57.75,3.75 9.95453,-1.73122 20.83445,14.88321 23.90625,26.03125 0.589,-2.09567 1.12663,-4.00219 1.65625,-5.75 -1.73806,-1.9258 -3.69722,-4.61996 -5.3125,-8.28125 -3.75,-8.5 -12,-13.25 -12,-13.25 0,0 8.75,-5 14.75,-7.75 1.61703,-0.74114 3.00627,-1.67713 4.1875,-2.65625 -0.16234,-0.77403 -0.25893,-1.25585 -0.4375,-2.09375 -0.0311,-0.14611 -0.062,-0.29154 -0.0937,-0.4375 -4.76565,5.5624 -19.23226,9.61532 -21.65625,10.9375 -2.75,1.5 -18.25,3 -35.75,4.5 -17.5,1.5 -26.75,-7.5 -34.25,-14.75 -7.5,-7.25 -13,-36 -3,-38 10,-2 20,13.75 30,17 10,3.25 21.5,-15.75 19.75,-27 C 181.79693,80.265625 169.00292,75.375305 158.5313,75.34375 Z M 105.1875,88.625 c 1.27533,0.0015 5.85938,1.59375 6.5625,2.375 2.25,2.5 2,7.25 0,8 -2,0.75 -12.75,8 -10.5,14.25 2.25,6.25 1.75,18 -3.5,18 -5.25,0 -8,0 -10,-2.5 -2,-2.5 -2,-12 0,-19.75 2,-7.75 3.5,-15 8,-18.25 3.09375,-2.23438 6.63177,-2.128357 9.4375,-2.125 z m 13.59375,73.09375 c 0.20325,0.0137 1.90625,3.51563 4.71875,7.03125 3,3.75 3.25,8.25 3.25,8.25 0,0 -4.25,-4.75 -6,-8 -1.75,-3.25 -2,-7.25 -2,-7.25 0,-0.0312 0.0178,-0.0323 0.0312,-0.0312 z"
           id="path5280" />
        <path
           style="opacity:0.386957;fill:none;stroke:#6d7f42;stroke-width:0.999522;stroke-linecap:round;stroke-linejoin:round;stroke-miterlimit:4;stroke-dasharray:none;stroke-opacity:1"
           d="M 122.75,62.25 C 129,62.75 135,60 133.5,55.75 132,51.5 121,48.5 120.25,52.75 c -0.75,4.25 2,10.5 2.5,9.5 z"
           id="path5319" />
        <path
           style="opacity:0.386957;fill:none;stroke:#6d7f42;stroke-width:0.999522;stroke-linecap:round;stroke-linejoin:round;stroke-miterlimit:4;stroke-dasharray:none;stroke-opacity:1"
           d="m 108.75,46.75 c -8.5,-5.5 -8.5,-7.25 -7,-8 1.5,-0.75 10.25,5 12.75,8 2.5,3 -2.25,2 -5.75,0 z"
           id="path5321" />
        <g
           id="g5373"
           clip-path="url(#clipPath5383)"
           transform="translate(0,-10)"
           style="stroke-width:0.999522;stroke-dasharray:none">
          <path
             id="path5323"
             d="M 15.75,151.25 C 48.75,148.75 54,147.75 52,141 50,134.25 43.25,117.5 29,118.5 14.75,119.5 6.25,111.75 6.25,111.75"
             style="opacity:0.386957;fill:none;stroke:#6d7f42;stroke-width:0.999522;stroke-linecap:round;stroke-linejoin:round;stroke-miterlimit:4;stroke-dasharray:none;stroke-opacity:1" />
          <path
             id="path5311"
             d="m 17.5,177.25 c 18.25,-10 28.75,-8.5 35,-11.5 6.25,-3 13.25,-5.75 15.75,-9.5 2.5,-3.75 5.75,-11.5 5.75,-18 0,-6.5 -3.5,-36 3.25,-43.5 6.75,-7.5 17.25,-26 26,-23.25 8.75,2.75 12.25,9.75 22,9.5 9.75,-0.25 21.75,-4 24.25,-12.25 2.5,-8.25 -15.75,-16 -16,-23 -0.25,-7 5.5,-14.25 20.25,-17 14.75,-2.75 23.5,-11.5 23.5,-11.5"
             style="opacity:0.386957;fill:none;stroke:#6d7f42;stroke-width:0.999522;stroke-dasharray:none;stroke-opacity:1" />
          <path
             id="path5313"
             d="m 14.5,161 c 15.25,-1.5 22.25,3.5 31.5,1.75 9.25,-1.75 13.25,-3 17.75,-5.75 4.5,-2.75 6,-3.75 6.25,-6.5 0.25,-2.75 1,-12.5 -3,-22 C 63,119 54.5,97 58.75,89.75 63,82.5 64,68.25 74.5,65.25 85,62.25 95.5,59 102.25,64 c 6.75,5 12.75,14.25 20,14.5 7.25,0.25 11.75,-1.5 14.5,-4.5 2.75,-3 4.5,-10.25 1.75,-13.75 -2.75,-3.5 -15.5,-5.5 -17.25,-9.5 -1.75,-4 -10.75,-17 -0.25,-26.75 10.5,-9.75 36.25,-8.25 36.25,-8.25"
             style="opacity:0.386957;fill:none;stroke:#6d7f42;stroke-width:0.999522;stroke-linecap:round;stroke-linejoin:round;stroke-miterlimit:4;stroke-dasharray:none;stroke-opacity:1" />
          <path
             id="path5315"
             d="m 21.25,159 c 13.75,1 21.5,4.25 33.5,-0.5 12,-4.75 13.5,-5.25 13.75,-8.75 0.25,-3.5 -0.25,-15.75 -3,-20 C 62.75,125.5 52.5,116 49.75,105.5 47,95 50,64.5 58.25,57.25 66.5,50 90.25,50 95.75,46.75 c 5.5,-3.25 5.25,-16.75 13,-24.5 7.75,-7.75 27,-12.2500003 27,-12.2500003"
             style="opacity:0.386957;fill:none;stroke:#6d7f42;stroke-width:0.999522;stroke-linecap:round;stroke-linejoin:round;stroke-miterlimit:4;stroke-dasharray:none;stroke-opacity:1" />
          <path
             id="path5317"
             d="m 190,18.5 c 11.75,5 39,9.75 47.25,40.25"
             style="opacity:0.386957;fill:none;stroke:#6d7f42;stroke-width:0.999522;stroke-linecap:round;stroke-linejoin:round;stroke-miterlimit:4;stroke-dasharray:none;stroke-opacity:1" />
          <path
             id="path5325"
             d="m 9.75,214 c 19,-12.5 36,-1.25 49,-4 13,-2.75 38.25,-37.25 46,-37 7.75,0.25 5.5,-11.75 8.5,-13.25 3,-1.5 5.5,6 11.75,8 6.25,2 24.5,-2.75 23.5,-5.75 -1,-3 -7,-7.75 -5.5,-8.5 1.5,-0.75 8.5,5 12.75,3.5 4.25,-1.5 43.75,-1 48.5,-13.5 C 209,131 225.75,130 225.75,130"
             style="opacity:0.386957;fill:none;stroke:#6d7f42;stroke-width:0.999522;stroke-linecap:round;stroke-linejoin:round;stroke-miterlimit:4;stroke-dasharray:none;stroke-opacity:1" />
          <path
             sodipodi:nodetypes="csssssssc"
             id="path5327"
             d="m 77.5,233.5 c 13.5,-11.5 23.25,-25 28.5,-27 5.25,-2 12.75,-3.75 15.75,-8 3,-4.25 2.5,-10.75 5.25,-12 2.75,-1.25 3.75,5.75 8.75,6 5,0.25 36.75,-5 42.75,-11.75 6,-6.75 32.25,-12.5 32.5,-14.5 0.25,-2 -1,-4.75 0.25,-5.5 1.25,-0.75 24.75,-6 24.75,-6"
             style="opacity:0.386957;fill:none;stroke:#6d7f42;stroke-width:0.999522;stroke-linecap:round;stroke-linejoin:round;stroke-miterlimit:4;stroke-dasharray:none;stroke-opacity:1" />
          <path
             id="path5329"
             d="m 168.75,236 c 9,-13.75 20.5,-41 29.5,-42 9,-1 10.25,-2.5 12.5,-4.25 2.25,-1.75 17,2.25 17,2.25"
             style="opacity:0.386957;fill:none;stroke:#6d7f42;stroke-width:0.999522;stroke-linecap:round;stroke-linejoin:round;stroke-miterlimit:4;stroke-dasharray:none;stroke-opacity:1" />
        </g>
        <g
           id="g5400"
           clip-path="url(#clipPath5426)"
           transform="translate(0,-10)"
           style="stroke-width:0.999522;stroke-dasharray:none">
          <path
             id="path5387"
             d="m 57.75,20 -8.5,28.25 18,6.25 L 75,90.75 54,113 l 9,10.5 -12,11.5 0.5,4.5 20.25,24.5 14,-6.75 20.5,18.5 -10.5,28.25 10.25,8.5 -2.75,13"
             style="fill:none;stroke:#d38484;stroke-width:0.999522;stroke-linecap:round;stroke-linejoin:miter;stroke-miterlimit:4;stroke-dasharray:none;stroke-opacity:1" />
          <path
             id="path5389"
             d="m 105.75,212.25 12.5,-27.75 11,-7 27.5,15.75 20.5,-3.75 -0.25,-15.75 -10.25,-6 12.75,-26.25 5.75,-3.75 38.75,-10"
             style="fill:none;stroke:#d38484;stroke-width:0.999522;stroke-linecap:round;stroke-linejoin:miter;stroke-miterlimit:4;stroke-dasharray:none;stroke-opacity:1" />
        </g>
      </g>
    </g>
    <g
       style="clip-rule:evenodd;fill-rule:evenodd;image-rendering:optimizeQuality;shape-rendering:geometricPrecision;text-rendering:geometricPrecision;opacity:0.5"
       id="g3-6-7"
       transform="matrix(1.5974163,-0.92226876,0.9222688,1.5974163,-33.483422,68.419527)"
       mask="url(#mask1)"
       inkscape:label="Flag">
      <path
         fill="#e40303"
         d="M 0,0 H 127 V 26.194 H 0 Z"
         id="path1-6-5" />
      <path
         fill="#ff8c00"
         d="M 0,21.167 H 127 V 47.361 H 0 Z"
         id="path2-4-6-3" />
      <path
         fill="#ffed00"
         d="M 0,42.333 H 127 V 68.527 H 0 Z"
         id="path3-2-4" />
      <path
         fill="#008026"
         d="M 0,63.5 H 127 V 89.694 H 0 Z"
         id="path4-0-1" />
      <path
         fill="#004dff"
         d="m 0,84.667 h 127 v 26.194 H 0 Z"
         id="path5-7-9" />
      <path
         fill="#750787"
         d="M 0,105.833 H 127 V 127 H 0 Z"
         id="path6-0-5" />
    </g>
    <path
       d="m 179.12601,24.999682 q 10.01482,0 19.35067,3.793694 9.50557,3.621272 16.63477,11.2087 7.29894,7.414987 11.54253,18.796129 4.41329,11.381144 4.41329,26.900874 0,17.244161 -5.43177,32.246571 -5.43176,14.82998 -14.25838,27.93553 -8.8266,13.10556 -20.02962,24.65913 -11.03328,11.38111 -22.40604,21.90007 -11.37278,10.34648 -22.06655,20.0032 -10.52404,9.4843 -18.16248,18.62369 h -1.52766 Q 119.54636,221.92788 109.02228,212.44358 98.498274,202.78686 87.125514,192.44038 75.752742,181.92142 64.54973,170.54031 53.516464,158.98674 44.689836,145.88118 35.863229,132.77563 30.431465,117.94565 24.999682,102.94324 24.999682,85.699079 q 0,-15.51973 4.243565,-26.900874 4.413314,-11.381142 11.54249,-18.796129 7.298964,-7.587428 16.634817,-11.2087 9.505581,-3.793694 19.520385,-3.793694 9.67534,0 17.31376,2.586594 7.808141,2.586634 13.918891,7.070129 6.28049,4.311033 10.86352,10.00158 4.75282,5.518134 8.14766,11.381163 h 1.52766 q 3.39488,-5.863029 8.14765,-11.381163 4.75279,-5.690547 10.86355,-10.00158 6.28048,-4.483495 13.91889,-7.070129 7.80816,-2.586594 17.48349,-2.586594 z"
       id="text8-4-6-0-1"
       style="font-size:173.333px;font-family:'Nirmala UI';-inkscape-font-specification:'Nirmala UI';display:inline;opacity:1;mix-blend-mode:normal;fill:#000000;fill-opacity:0;fill-rule:evenodd;stroke:#000000;stroke-width:5;stroke-linecap:round;stroke-linejoin:round;stroke-dasharray:none;stroke-opacity:1;paint-order:normal;filter:url(#filter1)"
       aria-label="♥"
       inkscape:label="Heart Outline Shadow"
       sodipodi:insensitive="true" />
    <path
       d="m 179.12601,24.999682 q 10.01482,0 19.35067,3.793694 9.50557,3.621272 16.63477,11.2087 7.29894,7.414987 11.54253,18.796129 4.41329,11.381144 4.41329,26.900874 0,17.244161 -5.43177,32.246571 -5.43176,14.82998 -14.25838,27.93553 -8.8266,13.10556 -20.02962,24.65913 -11.03328,11.38111 -22.40604,21.90007 -11.37278,10.34648 -22.06655,20.0032 -10.52404,9.4843 -18.16248,18.62369 h -1.52766 Q 119.54636,221.92788 109.02228,212.44358 98.498274,202.78686 87.125514,192.44038 75.752742,181.92142 64.54973,170.54031 53.516464,158.98674 44.689836,145.88118 35.863229,132.77563 30.431465,117.94565 24.999682,102.94324 24.999682,85.699079 q 0,-15.51973 4.243565,-26.900874 4.413314,-11.381142 11.54249,-18.796129 7.298964,-7.587428 16.634817,-11.2087 9.505581,-3.793694 19.520385,-3.793694 9.67534,0 17.31376,2.586594 7.808141,2.586634 13.918891,7.070129 6.28049,4.311033 10.86352,10.00158 4.75282,5.518134 8.14766,11.381163 h 1.52766 q 3.39488,-5.863029 8.14765,-11.381163 4.75279,-5.690547 10.86355,-10.00158 6.28048,-4.483495 13.91889,-7.070129 7.80816,-2.586594 17.48349,-2.586594 z"
       id="text8-4-6-0-1-2"
       style="font-size:173.333px;font-family:'Nirmala UI';-inkscape-font-specification:'Nirmala UI';display:inline;fill:#000000;fill-opacity:0;fill-rule:evenodd;stroke:#000000;stroke-width:3.5;stroke-linecap:round;stroke-linejoin:round;stroke-dasharray:none;stroke-opacity:1;paint-order:normal"
       aria-label="♥"
       inkscape:label="Heart Outline Highlight"
       sodipodi:insensitive="true" />
    <path
       d="m 179.12601,24.999682 q 10.01482,0 19.35067,3.793694 9.50557,3.621272 16.63477,11.2087 7.29894,7.414987 11.54253,18.796129 4.41329,11.381144 4.41329,26.900874 0,17.244161 -5.43177,32.246571 -5.43176,14.82998 -14.25838,27.93553 -8.8266,13.10556 -20.02962,24.65913 -11.03328,11.38111 -22.40604,21.90007 -11.37278,10.34648 -22.06655,20.0032 -10.52404,9.4843 -18.16248,18.62369 h -1.52766 Q 119.54636,221.92788 109.02228,212.44358 98.498274,202.78686 87.125514,192.44038 75.752742,181.92142 64.54973,170.54031 53.516464,158.98674 44.689836,145.88118 35.863229,132.77563 30.431465,117.94565 24.999682,102.94324 24.999682,85.699079 q 0,-15.51973 4.243565,-26.900874 4.413314,-11.381142 11.54249,-18.796129 7.298964,-7.587428 16.634817,-11.2087 9.505581,-3.793694 19.520385,-3.793694 9.67534,0 17.31376,2.586594 7.808141,2.586634 13.918891,7.070129 6.28049,4.311033 10.86352,10.00158 4.75282,5.518134 8.14766,11.381163 h 1.52766 q 3.39488,-5.863029 8.14765,-11.381163 4.75279,-5.690547 10.86355,-10.00158 6.28048,-4.483495 13.91889,-7.070129 7.80816,-2.586594 17.48349,-2.586594 z"
       id="text8-4-6-0-1-3"
       style="font-size:173.333px;font-family:'Nirmala UI';-inkscape-font-specification:'Nirmala UI';display:inline;fill:#000000;fill-opacity:0;fill-rule:evenodd;stroke:#ffffff;stroke-width:2.5;stroke-linecap:round;stroke-linejoin:round;stroke-dasharray:none;stroke-opacity:1;paint-order:normal"
       aria-label="♥"
       inkscape:label="Heart Outline"
       sodipodi:insensitive="true" />
  </g>
  <metadata
     id="metadata1">
    <rdf:RDF>
      <cc:Work
         rdf:about="">
        <cc:license
           rdf:resource="http://creativecommons.org/publicdomain/zero/1.0/" />
      </cc:Work>
      <cc:License
         rdf:about="http://creativecommons.org/publicdomain/zero/1.0/">
        <cc:permits
           rdf:resource="http://creativecommons.org/ns#Reproduction" />
        <cc:permits
           rdf:resource="http://creativecommons.org/ns#Distribution" />
        <cc:permits
           rdf:resource="http://creativecommons.org/ns#DerivativeWorks" />
      </cc:License>
    </rdf:RDF>
  </metadata>
</svg>
